HIERARCHY
ROOT Hips
{
	OFFSET 0.000000 0.000000 0.000000
	CHANNELS 6 Xposition Yposition Zposition Zrotation Yrotation Xrotation
	JOINT LHipJoint
	{
		OFFSET 0.000000 0.000000 0.000000
		CHANNELS 3 Zrotation Yrotation Xrotation
		JOINT LeftUpLeg
		{
			OFFSET 0.076937 -0.101296 0.047373
			CHANNELS 3 Zrotation Yrotation Xrotation
			JOINT LeftLeg
			{
				OFFSET 0.138181 -0.379650 0.000000
				CHANNELS 3 Zrotation Yrotation Xrotation
				JOINT LeftFoot
				{
					OFFSET 0.144621 -0.397343 0.000000
					CHANNELS 3 Zrotation Yrotation Xrotation
					JOINT LeftToeBase
					{
						OFFSET 0.008898 -0.024446 0.131094
						CHANNELS 3 Zrotation Yrotation Xrotation
						End Site
						{
							OFFSET 0.000000 0.000000 0.000000
						}
					}
				}
			}
		}
	}
	JOINT RHipJoint
	{
		OFFSET 0.000000 0.000000 0.000000
		CHANNELS 3 Zrotation Yrotation Xrotation
		JOINT RightUpLeg
		{
			OFFSET -0.073689 -0.101296 0.047373
			CHANNELS 3 Zrotation Yrotation Xrotation
			JOINT RightLeg
			{
				OFFSET -0.143511 -0.394292 0.000000
				CHANNELS 3 Zrotation Yrotation Xrotation
				JOINT RightFoot
				{
					OFFSET -0.144963 -0.398282 0.000000
					CHANNELS 3 Zrotation Yrotation Xrotation
					JOINT RightToeBase
					{
						OFFSET -0.009298 -0.025546 0.133386
						CHANNELS 3 Zrotation Yrotation Xrotation
						End Site
						{
							OFFSET 0.000000 0.000000 0.000000
						}
					}
				}
			}
		}
	}
	JOINT LowerBack
	{
		OFFSET 0.000000 0.000000 0.000000
		CHANNELS 3 Zrotation Yrotation Xrotation
		JOINT Spine
		{
			OFFSET 0.001596 0.114897 -0.010915
			CHANNELS 3 Zrotation Yrotation Xrotation
			JOINT Spine1
			{
				OFFSET 0.003201 0.115645 -0.002413
				CHANNELS 3 Zrotation Yrotation Xrotation
				JOINT Neck
				{
					OFFSET 0.000000 0.000000 0.000000
					CHANNELS 3 Zrotation Yrotation Xrotation
					JOINT Neck1
					{
						OFFSET -0.003058 0.098565 0.009709
						CHANNELS 3 Zrotation Yrotation Xrotation
						JOINT Head
						{
							OFFSET 0.005874 0.099418 -0.006997
							CHANNELS 3 Zrotation Yrotation Xrotation
							End Site
							{
								OFFSET 0.000000 0.000000 0.000000
							}
						}
					}
				}
				JOINT LeftShoulder
				{
					OFFSET 0.000000 0.000000 0.000000
					CHANNELS 3 Zrotation Yrotation Xrotation
					JOINT LeftArm
					{
						OFFSET 0.189788 0.067783 -0.017566
						CHANNELS 3 Zrotation Yrotation Xrotation
						JOINT LeftForeArm
						{
							OFFSET 0.281260 -0.000000 -0.000000
							CHANNELS 3 Zrotation Yrotation Xrotation
							JOINT LeftHand
							{
								OFFSET 0.196626 -0.000000 -0.000000
								CHANNELS 3 Zrotation Yrotation Xrotation
								JOINT LeftFingerBase
								{
									OFFSET 0.000000 0.000000 0.000000
									CHANNELS 3 Zrotation Yrotation Xrotation
									JOINT LeftHandIndex1
									{
										OFFSET 0.040372 -0.000000 -0.000000
										CHANNELS 3 Zrotation Yrotation Xrotation
										End Site
										{
											OFFSET 0.000000 0.000000 0.000000
										}
									}
								}
								JOINT LThumb
								{
									OFFSET 0.000000 0.000000 0.000000
									CHANNELS 3 Zrotation Yrotation Xrotation
									End Site
									{
										OFFSET 0.000000 0.000000 0.000000
									}
								}
							}
						}
					}
				}
				JOINT RightShoulder
				{
					OFFSET 0.000000 0.000000 0.000000
					CHANNELS 3 Zrotation Yrotation Xrotation
					JOINT RightArm
					{
						OFFSET -0.177042 0.077557 -0.022840
						CHANNELS 3 Zrotation Yrotation Xrotation
						JOINT RightForeArm
						{
							OFFSET -0.295874 -0.000000 -0.000000
							CHANNELS 3 Zrotation Yrotation Xrotation
							JOINT RightHand
							{
								OFFSET -0.194403 -0.000000 -0.000000
								CHANNELS 3 Zrotation Yrotation Xrotation
								JOINT RightFingerBase
								{
									OFFSET 0.000000 0.000000 0.000000
									CHANNELS 3 Zrotation Yrotation Xrotation
									JOINT RightHandIndex1
									{
										OFFSET -0.035138 -0.000000 -0.000000
										CHANNELS 3 Zrotation Yrotation Xrotation
										End Site
										{
											OFFSET 0.000000 0.000000 0.000000
										}
									}
								}
								JOINT RThumb
								{
									OFFSET 0.000000 0.000000 0.000000
									CHANNELS 3 Zrotation Yrotation Xrotation
									End Site
									{
										OFFSET 0.000000 0.000000 0.000000
									}
								}
							}
						}
					}
				}
			}
		}
	}
}
MOTION
Frames: 11
Frame Time: 0.033333
16.620846 0.903030 -16.977941 178.513094 -47.461664 -172.947333 -7.521934 24.516184 -9.989229 -25.563560 -9.518839 -20.535534 18.003043 2.827055 63.995641 30.528829 -8.881924 -16.706990 -7.183258 5.673050 -14.024263 7.555541 -27.324985 -5.635093 18.322895 11.142605 -25.958096 -32.156430 -5.883450 82.302285 -48.435871 22.930595 -2.612405 8.345972 -20.204858 -9.956102 6.985203 -0.748816 46.550588 -3.092848 -2.512502 0.710338 -3.761203 1.354913 -15.792110 -2.341408 -2.834389 -13.616786 5.608637 -2.959988 -7.566244 -2.058524 -2.616936 -18.199469 9.817414 17.217573 0.779249 -81.635932 -16.187972 29.858810 -10.290093 -85.001945 21.120409 12.443912 -22.452236 10.973767 0.768929 10.961038 0.541377 -0.007517 -0.007858 0.020515 0.007386 -0.005787 -0.001629 -12.093727 -16.096061 -1.308857 81.437083 14.683608 37.019325 1.489090 82.447905 11.015557 -13.048258 28.328846 12.768113 1.683644 -11.437463 -0.216946 -0.026401 -0.053329 0.041516 -0.009030 0.000296 0.017281 
16.581166 0.921743 -17.032429 178.684727 -45.313466 -173.079893 -6.744184 22.604467 -7.250857 -21.964754 -7.665757 -17.813794 16.468857 4.817836 60.967893 29.830385 -7.674061 -14.325391 -8.142095 6.128756 -15.947260 6.106109 -28.623775 -6.434493 21.390576 13.622281 -29.208428 -24.106946 -5.269614 78.177845 -37.374179 9.149808 1.523119 7.130426 -12.939191 -10.280541 7.097053 0.887570 44.843577 -1.428732 -0.818205 1.000927 -4.591647 -0.791374 -16.768610 -2.763856 -1.883384 -13.377066 4.907952 -2.286334 -6.446147 -2.085125 -1.651332 -17.783062 10.374073 16.706913 0.055061 -82.811177 -18.164009 34.741048 -67.717897 -89.431164 80.247393 13.102257 -23.899940 11.282941 0.134887 10.384239 0.426998 -0.004664 -0.012545 0.018150 0.006581 -0.003320 -0.004686 -13.783613 -18.472349 -0.653281 81.685205 10.522227 39.826599 -12.179862 86.528255 -5.684600 -11.872315 28.173907 12.251901 2.574317 -11.260319 -0.246211 -0.027274 -0.053819 0.038123 -0.005408 0.001236 0.017621 
16.542552 0.941457 -17.090852 178.687736 -43.132377 -173.013503 -5.890733 20.764036 -4.145438 -18.266073 -6.555649 -15.162591 13.902591 6.802242 56.007888 29.680441 -6.224970 -7.548419 -8.619611 6.679408 -17.470261 5.118709 -30.316579 -8.364084 24.788615 15.069557 -30.427958 -20.429462 -5.503783 71.459544 -33.595812 4.488787 -2.792441 6.288078 -10.274754 -10.594841 7.874466 2.756369 42.749446 0.653244 0.837954 1.565747 -6.067108 -2.857682 -17.654683 -3.591180 1.323402 -13.292354 4.250315 0.623892 -5.303002 -1.932204 0.130858 -17.544703 11.016704 16.002866 -0.422279 -83.657143 -18.960789 39.696672 177.152295 -85.224770 -165.050963 13.557896 -26.058730 10.781919 -0.571602 9.720218 0.300762 -0.006401 -0.010668 0.014763 0.003874 0.002308 -0.004877 -15.647523 -22.579373 0.711549 81.582784 5.491005 43.084297 -151.235893 85.710343 -147.656862 -11.144469 28.154192 12.181475 3.506611 -10.762195 -0.241000 -0.024690 -0.057452 0.037564 -0.001567 0.002809 0.020224 
16.504134 0.960022 -17.152314 178.504692 -41.363103 -172.745960 -5.299901 19.342119 -1.654908 -15.178060 -6.179475 -13.016747 12.059232 8.648780 51.824694 31.468769 -6.114726 0.924326 -8.761064 7.492521 -18.398663 4.111256 -31.279917 -9.520580 27.441589 15.873366 -30.514353 -16.010983 -5.546103 60.806067 -32.614658 3.795035 -5.958627 5.521633 -7.981621 -11.140868 8.423706 4.092595 40.338630 2.447844 2.301549 2.088012 -7.991922 -4.435443 -18.602209 -4.613710 4.895212 -13.218200 3.847217 4.087610 -4.788364 -1.618034 1.982332 -17.465477 11.408196 15.728872 -0.576919 -83.813928 -19.440844 43.387840 174.186272 -82.126840 -162.379678 13.794036 -27.172363 10.611358 -1.132901 9.309449 0.208436 -0.007858 -0.007031 0.013363 0.000607 0.007158 -0.004405 -17.040182 -27.185882 1.897108 80.260037 1.088853 45.632970 -159.328726 81.122357 -157.562110 -10.810383 27.776918 12.272682 4.225102 -10.546443 -0.203454 -0.023197 -0.060465 0.037875 0.000179 0.003131 0.023316 
16.465419 0.975984 -17.215083 178.367413 -40.257557 -172.402023 -4.994473 18.528975 0.202550 -12.459639 -5.986509 -11.701313 10.686331 10.568299 49.947614 35.066895 -9.538500 8.551903 -9.532934 9.527320 -16.905743 2.894755 -31.212040 -9.490758 29.271469 15.410141 -28.993274 -11.246538 -4.227983 48.808122 -33.134241 6.781879 -7.556095 4.923961 -5.890406 -11.050082 8.099993 4.973079 37.698868 3.762678 3.348467 2.779382 -9.072022 -5.283123 -19.753080 -5.644736 8.516304 -13.222214 3.879215 7.431526 -3.856418 -1.247764 3.268179 -17.111978 12.051201 15.744574 -0.416726 -83.361807 -19.649864 46.356500 176.484795 -80.485237 -164.087428 13.603806 -27.658598 10.666786 -1.443583 9.111910 0.215651 -0.007809 -0.007503 0.013452 -0.001349 0.008712 -0.004811 -17.483933 -31.700231 3.635694 77.543092 -2.587747 45.889975 -161.951033 80.190848 -160.081675 -10.333073 26.058006 12.136714 4.386311 -10.668603 -0.210729 -0.024060 -0.062899 0.039310 0.001609 0.003932 0.023429 
16.426765 0.986013 -17.277405 178.264329 -39.709677 -172.385855 -4.996030 18.416593 1.606464 -10.199158 -5.751724 -10.901346 11.265627 12.578968 49.962058 38.650378 -15.592954 14.232930 -10.554328 13.782896 -14.000048 1.873873 -30.937314 -9.135387 30.372818 14.090732 -26.905937 -8.660437 -2.516915 41.203017 -32.324835 9.392093 -7.913318 5.358047 -5.262391 -10.942583 7.012010 5.359581 35.111955 4.326376 3.841304 4.330297 -8.993971 -5.371851 -21.327500 -6.428884 11.134326 -13.327300 4.131505 9.794631 -2.297043 -0.918631 4.090047 -16.399690 12.638438 16.337032 -0.234706 -82.546185 -19.056702 50.092561 173.992567 -80.331812 -162.649868 13.567624 -28.372398 10.761258 -2.378597 8.945871 0.226004 -0.006624 -0.009825 0.015393 -0.003034 0.008739 -0.006081 -16.882940 -35.287236 5.087916 74.774504 -5.069459 45.435251 -163.614349 80.868883 -161.557232 -9.702633 24.003971 11.490877 4.364797 -10.888000 -0.235661 -0.025455 -0.064912 0.040334 0.003996 0.005567 0.018883 
16.388779 0.990423 -17.337748 178.398385 -39.876845 -173.260750 -5.331954 18.938832 1.993559 -8.797284 -5.650049 -11.329816 13.058454 14.051583 54.507361 41.628278 -21.959100 18.071414 -11.945148 18.321009 -10.924685 1.155479 -31.274761 -8.280487 31.384193 12.545893 -24.942038 -7.111378 -0.806959 36.860881 -32.417860 11.898294 -7.209019 6.016658 -5.105763 -10.607937 6.270680 5.530214 31.833539 4.167981 4.078661 7.711695 -8.640354 -4.601394 -24.012874 -6.876188 13.225734 -13.576776 4.982191 11.603160 0.274587 -0.505840 4.239107 -14.908783 12.955265 17.689196 -0.030063 -80.982675 -17.871259 55.905010 167.289356 -82.747997 -158.277428 12.649874 -29.796460 10.674905 -4.110536 8.831238 0.253493 -0.006252 -0.011997 0.015689 -0.003215 0.011459 -0.006139 -16.082108 -38.332718 5.789527 72.219931 -6.207815 44.929440 -163.120807 82.030509 -160.957556 -9.169154 21.948951 10.772157 4.018602 -11.027213 -0.287805 -0.026507 -0.068591 0.040819 0.006628 0.007632 0.013178 
16.352170 0.986557 -17.395710 178.754181 -40.226731 -174.460590 -5.455523 19.616208 1.273119 -8.348933 -5.877060 -12.403091 18.008851 14.407577 61.250390 47.255359 -28.292912 16.148195 -12.062168 22.001206 -9.065599 0.622385 -31.208015 -6.668853 31.768658 11.938564 -23.134323 -6.998050 -0.260748 36.331044 -32.335761 12.357628 -7.275988 5.929684 -4.838396 -10.472751 5.497554 5.602208 28.453629 3.688266 4.540151 10.544353 -7.519593 -3.532373 -25.861941 -7.133481 14.441476 -13.859329 5.664952 12.758196 2.342583 -0.188339 4.406722 -13.690453 12.787515 18.953653 0.600536 -80.032947 -16.712522 57.935507 162.614817 -86.584416 -153.748419 11.671178 -30.607123 10.780522 -4.869010 8.936940 0.218703 -0.008065 -0.014931 0.016861 -0.003919 0.011479 -0.006158 -14.405132 -39.800463 6.084815 70.675119 -6.406882 43.302549 -164.108982 83.760695 -162.608310 -8.730870 20.366756 9.546186 3.175191 -11.026402 -0.274103 -0.026076 -0.071982 0.041204 0.010543 0.008934 0.010024 
16.316932 0.976210 -17.449744 179.142812 -40.648975 -175.880648 -5.592407 20.817443 -0.215985 -9.004465 -6.477847 -14.638418 23.230049 13.320671 69.176326 51.217279 -30.601575 11.799155 -11.647171 23.761452 -7.838570 0.433596 -31.247007 -4.975820 32.116881 11.484607 -21.083609 -8.083194 -0.907790 39.281256 -31.556862 11.548389 -8.995402 5.646016 -4.660484 -10.538176 4.475367 5.561057 25.546889 3.414235 5.082250 12.375827 -6.357956 -2.052621 -27.018776 -7.405547 15.523192 -13.935849 6.222628 13.903695 4.379753 0.109434 4.694156 -12.474942 12.496566 19.800090 1.807195 -79.687053 -14.701191 58.227921 31.927516 -89.122115 -22.356250 10.722385 -30.680495 11.090326 -5.215942 9.169188 0.178824 -0.009932 -0.017361 0.017287 -0.004709 0.009975 -0.005719 -12.137127 -40.766285 5.624366 69.113826 -6.027515 42.223337 -167.195246 85.345008 -165.024330 -8.536353 19.394296 8.712010 2.367836 -10.968698 -0.285310 -0.024462 -0.072941 0.040625 0.012590 0.008478 0.007967 
16.283249 0.966557 -17.498718 179.677824 -41.277043 -177.372345 -5.920452 22.357745 -1.961882 -10.155703 -7.675953 -18.566898 26.042303 11.011970 76.220800 50.731604 -27.346280 9.617804 -11.479294 23.218855 -7.405624 0.647440 -31.464185 -4.093187 32.450561 10.537362 -18.605103 -10.579568 -2.345025 43.336709 -33.116958 11.002966 -11.590861 5.355974 -4.640522 -10.879688 3.235870 5.565334 23.604805 4.306356 5.643787 13.834593 -5.414400 -1.403249 -27.943667 -7.464584 15.177286 -14.088537 6.396256 13.673677 6.127223 0.145868 4.623848 -11.451214 11.757574 20.959249 3.065095 -79.004704 -13.320916 56.746027 -5.530202 -86.499292 15.525538 9.806695 -29.813251 10.787837 -4.835796 9.432372 0.179108 -0.008897 -0.017983 0.016117 -0.006303 0.006993 -0.003613 -10.189472 -41.218716 4.235544 69.131426 -4.142570 41.673280 -169.265636 87.779080 -166.639970 -7.928090 19.073949 7.601633 1.731016 -10.808155 -0.288116 -0.024107 -0.071576 0.037118 0.011604 0.007912 0.004614 
16.250503 0.961379 -17.543272 -179.756686 -42.334358 -178.668455 -6.229778 23.914137 -3.231108 -11.981559 -9.917544 -23.379603 25.619412 8.141139 80.222238 45.323924 -18.041658 9.737196 -10.626172 19.742753 -7.338653 0.993268 -31.350681 -3.911352 31.930591 8.494118 -16.450425 -13.000131 -3.207926 46.489371 -33.935513 10.620328 -14.493652 5.350951 -4.540515 -11.262222 2.007253 5.278802 22.139623 6.125864 5.858555 15.452306 -5.183410 -1.749157 -29.530270 -7.250570 13.531163 -13.902618 6.404813 12.342384 7.914665 0.011044 4.113357 -10.344835 10.196940 22.356211 3.650466 -77.822383 -12.563975 54.162571 -10.582553 -83.018020 21.068581 9.506009 -27.303337 10.149658 -3.692093 10.167372 0.160139 -0.007138 -0.019214 0.013560 -0.006313 0.004756 -0.002006 -8.637642 -40.931775 2.389866 70.321166 -0.829715 41.855999 12.278571 87.467493 16.680621 -7.512140 19.226753 6.967029 1.191700 -11.081379 -0.266696 -0.024161 -0.067247 0.033982 0.009332 0.006251 0.003302 
